Coordinates
version=1
nRows=10
nColumns=28
inDegrees=yes

Units are S.I. units (second, meters, Newtons, ...)
If the header above contains a line with 'inDegrees', this indicates whether rotational values are in degrees (yes) or radians (no).

endheader
time	pelvis_tilt	pelvis_list	pelvis_rotation	pelvis_tx	pelvis_ty	pelvis_tz	hip_flexion_r	hip_adduction_r	hip_rotation_r	knee_angle_r	knee_angle_r_ie	knee_angle_r_vv	ankle_angle_r	subtalar_angle_r	mtp_angle_r	hip_flexion_l	hip_adduction_l	hip_rotation_l	knee_angle_l	knee_angle_l_ie	knee_angle_l_vv	ankle_angle_l	subtalar_angle_l	mtp_angle_l	lumbar_extension	lumbar_bending	lumbar_rotation
      0.60000000	     -0.88316567	     -1.09712800	    -21.00102257	     -0.78889161	      1.20395843	      0.72512426	     44.92101765	      7.82978817	    -22.46493319	    -64.93670574	    -17.38100297	    -28.56747626	     37.13385265	     13.60101580	      0.00000000	      8.90778780	     -9.84982529	     -9.43635464	    -27.37703957	     17.02670872	      3.81837752	    -16.41901946	     12.30253929	      0.00000000	    -32.41170248	      9.97787196	    -10.69072384
      0.60500000	     -0.69808531	     -0.88393006	    -20.72245708	     -0.78803253	      1.20770026	      0.72625744	     44.24301528	      7.62565328	    -22.37668125	    -64.23439713	    -17.08110024	    -28.54464175	     36.86255659	     13.37780317	      0.00000000	      9.70973230	     -9.61801081	     -9.79055655	    -29.00593885	     17.96833828	      4.20132628	    -15.83852175	     13.23064866	      0.00000000	    -32.35143915	      9.83572724	    -10.69968184
      0.61000000	     -0.48970083	     -0.66923529	    -20.45493486	     -0.78715799	      1.21149216	      0.72737992	     43.53269923	      7.41554496	    -22.26736569	    -63.52155627	    -16.78734336	    -28.50984970	     36.63963053	     13.20148363	      0.00000000	     10.46157928	     -9.39275405	    -10.15057063	    -30.59852542	     18.93851551	      4.54385994	    -15.25240504	     13.95757344	      0.00000000	    -32.31270594	      9.67504375	    -10.70893163
      0.61500000	     -0.27621253	     -0.45686628	    -20.16921256	     -0.78626466	      1.21531358	      0.72843794	     42.80745722	      7.18412725	    -22.15193599	    -62.78685301	    -16.51488566	    -28.44758704	     36.37546099	     13.04514490	      0.00000000	     11.18845793	     -9.16489503	    -10.47667187	    -32.14802318	     19.88707524	      4.86751643	    -14.64121979	     14.40499973	      0.00000000	    -32.28343541	      9.53026341	    -10.69710703
      0.62000000	     -0.04778123	     -0.22266759	    -19.90427065	     -0.78541431	      1.21913439	      0.72952868	     42.08112078	      6.94574111	    -22.04356311	    -62.05344715	    -16.22948244	    -28.41570400	     36.05906048	     12.91600797	      0.00000000	     11.88624689	     -8.94372145	    -10.81181900	    -33.69563198	     20.79570730	      5.11842041	    -14.04953858	     14.63920910	      0.00000000	    -32.25411617	      9.32653979	    -10.70981835
      0.62500000	      0.14448427	     -0.01573410	    -19.63343300	     -0.78451277	      1.22293179	      0.73054775	     41.36835302	      6.72053027	    -22.00381760	    -61.31430738	    -15.87583970	    -28.39395082	     35.82573547	     12.72004823	      0.00000000	     12.62703869	     -8.75018046	    -11.21174880	    -35.19678983	     21.78628838	      5.47367018	    -13.44600165	     15.04698965	      0.00000000	    -32.20837923	      9.18073889	    -10.70927784
      0.63000000	      0.38730521	      0.21698787	    -19.36350899	     -0.78362046	      1.22683198	      0.73155372	     40.60082360	      6.45254690	    -21.90202386	    -60.55801617	    -15.55501701	    -28.32692310	     35.58957058	     12.58146379	      0.00000000	     13.27394750	     -8.53043528	    -11.57255018	    -36.66857294	     22.59712207	      5.72556714	    -12.78915073	     14.89516230	      0.00000000	    -32.20066717	      8.98788401	    -10.71281237
      0.63500000	      0.62564883	      0.46938452	    -19.10670403	     -0.78275067	      1.23070989	      0.73255416	     39.84854146	      6.17028516	    -21.81872810	    -59.79742520	    -15.21238259	    -28.28033963	     35.29037712	     12.44833908	      0.00000000	     13.92296704	     -8.31485110	    -11.96244710	    -38.13861023	     23.35867691	      5.95909731	    -12.11265482	     14.67654246	      0.00000000	    -32.18820128	      8.76392959	    -10.72000255
      0.64000000	      0.83110088	      0.67563810	    -18.82738900	     -0.78186970	      1.23457789	      0.73350683	     39.09683577	      5.91819402	    -21.81283518	    -59.02746030	    -14.79844562	    -28.23400102	     35.03881184	     12.19078614	      0.00000000	     14.61107198	     -8.16957100	    -12.34279131	    -39.61758839	     24.15018642	      6.20975782	    -11.38607917	     14.52984829	      0.00000000	    -32.15781796	      8.61330523	    -10.71509396
      0.64500000	      1.08368504	      0.93699307	    -18.56620694	     -0.78099622	      1.23849081	      0.73444193	     38.32044705	      5.60089860	    -21.75727538	    -58.25077790	    -14.42650526	    -28.17575044	     34.74681167	     12.05985483	      0.00000000	     15.23672379	     -7.95835053	    -12.78450543	    -41.04440375	     24.81150062	      6.47612689	    -10.64398209	     14.19702857	      0.00000000	    -32.15643031	      8.37616746	    -10.72201580
